# xmcd
#
# Track frame offsets:
# 150
# 18196
# 35739
# 54929
# 72578
# 88193
# 104741
# 123707
# 139806
# 159133
# 175794
# 189043
# 203039
# 224626
# 242581
# 260691
# 275159
# 291649
# 308495
#
# Disc length: 4426 seconds
#
#
# Revision: 1
# Processed by: cddbd v1.5.1PL0 Copyright (c) Steve Scherf et al.
# Submitted via: FreeRIP 2.941 
#
DISCID=24114813
DTITLE=Calcinha Preta - Especial 3 em 1
DYEAR=2004
DGENRE=Folk
TTITLE0=Agora Estou Sofrendo
TTITLE1=Fique Amor
TTITLE2=Por Amor
TTITLE3=Seu Namorado
TTITLE4=Te Amo
TTITLE5=Jogo Sujo
TTITLE6=O que é que eu vou fazer?
TTITLE7=Hoje à Noite
TTITLE8=Hipnose
TTITLE9=Não Tenho Nada
TTITLE10=Baby Dool
TTITLE11=Eu Quero é gpzar a vida
TTITLE12=Morrendo de Desejo
TTITLE13=Ânsia
TTITLE14=Manchete dos Jornais
TTITLE15=A calcinha preta é nossa
TTITLE16=Renascerá
TTITLE17=Perdoar
TTITLE18=Sem ninguém
EXTD=Calcinha Preta 10, 11 e 12
EXTT0=
EXTT1=
EXTT2=
EXTT3=
EXTT4=
EXTT5=
EXTT6=
EXTT7=
EXTT8=
EXTT9=
EXTT10=
EXTT11=
EXTT12=
EXTT13=
EXTT14=
EXTT15=
EXTT16=
EXTT17=
EXTT18=
PLAYORDER=
